<svg width="30" height="30" viewBox="0 0 30 30" fill="none" xmlns="http://www.w3.org/2000/svg">
<path d="M14.5898 0C6.53127 0 0 6.53127 0 14.5898C0 22.6485 6.53127 29.1797 14.5898 29.1797C22.6485 29.1797 29.1797 22.6485 29.1797 14.5898C29.1797 6.53133 22.6484 0 14.5898 0ZM14.5898 28.0125C7.18893 28.0125 1.16719 21.9908 1.16719 14.5898C1.16719 7.18893 7.18893 1.16719 14.5898 1.16719C21.9908 1.16719 28.0125 7.18893 28.0125 14.5898C28.0125 21.9908 21.9907 28.0125 14.5898 28.0125Z" fill="#DB5454"/>
<path d="M22.1765 14.0063H7.04185V15.1735H22.1765V14.0063Z" fill="#DB5454"/>
</svg>