<svg width="30" height="30" viewBox="0 0 30 30" fill="none" xmlns="http://www.w3.org/2000/svg">
<path d="M8.75 20H21.25C22.5761 20 23.8479 20.5268 24.7855 21.4645C25.7232 22.4021 26.25 23.6739 26.25 25V26.25H3.75V25C3.75 23.6739 4.27678 22.4021 5.21447 21.4645C6.15215 20.5268 7.42392 20 8.75 20Z" fill="black"/>
<path d="M15 2.5C15 2.5 6.25 3.75 6.25 12.5V26.25H23.75V12.5C23.75 3.75 15 2.5 15 2.5ZM21.25 15.3816C21.2546 15.9388 21.0377 16.475 20.647 16.8722C20.2563 17.2695 19.7238 17.4953 19.1666 17.5H18.0127L17.0834 20H12.9166L11.9873 17.5H10.8334C10.2762 17.4953 9.74369 17.2695 9.35299 16.8722C8.9623 16.475 8.7454 15.9388 8.75 15.3816V12.0754C8.73734 10.5432 9.33381 9.0687 10.4082 7.97625C11.4826 6.88381 12.9469 6.26286 14.4791 6.25H15.5209C17.053 6.26286 18.5174 6.8838 19.5918 7.97624C20.6662 9.06868 21.2627 10.5432 21.25 12.0753V15.3816Z" fill="black"/>
<path d="M10.1752 14.7121C10.0572 14.4296 9.99643 14.1266 9.99643 13.8205C9.99643 13.5143 10.0572 13.2113 10.1752 12.9288C10.3954 12.3765 11.2576 12.102 12.0492 12.0515C12.242 12.0239 12.4385 12.0381 12.6254 12.0931C12.8122 12.1481 12.9851 12.2427 13.1322 12.3704C13.2792 12.4981 13.3971 12.6559 13.4778 12.8332C13.5585 13.0105 13.6001 13.2031 13.5999 13.3979C13.5999 14.2579 12.7933 14.7689 11.9477 14.9021C11.0496 15.0428 10.4381 15.0726 10.1752 14.7121V14.7121Z" fill="black"/>
<path d="M19.825 14.7121C19.562 15.0726 18.9494 15.0428 18.052 14.9021C17.2064 14.7689 16.3998 14.2579 16.3998 13.3978C16.3995 13.203 16.4411 13.0105 16.5218 12.8332C16.6025 12.6559 16.7204 12.4981 16.8675 12.3704C17.0145 12.2427 17.1874 12.1481 17.3742 12.0931C17.5611 12.0381 17.7576 12.0239 17.9504 12.0515C18.742 12.102 19.6048 12.3765 19.825 12.9288C19.9429 13.2113 20.0036 13.5144 20.0036 13.8205C20.0036 14.1266 19.9429 14.4296 19.825 14.7121Z" fill="black"/>
<path d="M13.9319 16.2056C14.0934 15.7528 14.3119 15.3224 14.5821 14.9248C14.6233 14.857 14.6812 14.801 14.7503 14.7621C14.8195 14.7232 14.8975 14.7028 14.9768 14.7028C15.0561 14.7028 15.134 14.7232 15.2032 14.7621C15.2723 14.801 15.3303 14.857 15.3715 14.9248C15.642 15.3223 15.8606 15.7527 16.0221 16.2056C16.0408 16.2746 16.0433 16.3471 16.0292 16.4172C16.0152 16.4874 15.985 16.5533 15.9411 16.6099C15.8972 16.6664 15.8408 16.7119 15.7763 16.7429C15.7118 16.7739 15.641 16.7894 15.5694 16.7883C15.1173 16.7883 15.2255 16.2638 14.9928 16.2678C14.7484 16.2724 14.8229 16.7883 14.3841 16.7883C14.3125 16.7895 14.2417 16.7739 14.1772 16.7429C14.1127 16.712 14.0563 16.6664 14.0124 16.6099C13.9686 16.5534 13.9385 16.4874 13.9245 16.4172C13.9105 16.347 13.9131 16.2746 13.9319 16.2056Z" fill="black"/>
<path d="M22.5 10H7.5L8.75 8.75L12.5 5H17.5L21.25 7.5L22.5 10Z" fill="black"/>
</svg>
