<svg width="26" height="26" viewBox="0 0 26 26" fill="none" xmlns="http://www.w3.org/2000/svg">
<path d="M13 15.5C16.4518 15.5 19.25 12.1421 19.25 8C19.25 3.85786 16.4518 0.5 13 0.5C9.54822 0.5 6.75 3.85786 6.75 8C6.75 12.1421 9.54822 15.5 13 15.5Z" fill="#0C1B32"/>
<path d="M25.25 21.875C24.125 19.625 22 17.75 19.25 16.625C18.5 16.375 17.625 16.375 17 16.75C15.75 17.5 14.5 17.875 13 17.875C11.5 17.875 10.25 17.5 9.00003 16.75C8.37503 16.5 7.50003 16.375 6.75003 16.75C4.00003 17.875 1.87503 19.75 0.750027 22C-0.124973 23.625 1.25003 25.5 3.12503 25.5H22.875C24.75 25.5 26.125 23.625 25.25 21.875Z" fill="#0C1B32"/>
</svg>
